<?xml version="1.0" encoding="UTF-8" standalone="no"?>
<!-- Created with Inkscape (http://www.inkscape.org/) -->

<svg
   version="1.1"
   id="svg219"
   xml:space="preserve"
   width="595.93396"
   height="690.48102"
   viewBox="0 0 595.93394 690.48105"
   sodipodi:docname="Logo-only.svg"
   inkscape:version="1.1.2 (b8e25be8, 2022-02-05)"
   xmlns:inkscape="http://www.inkscape.org/namespaces/inkscape"
   xmlns:sodipodi="http://sodipodi.sourceforge.net/DTD/sodipodi-0.dtd"
   xmlns="http://www.w3.org/2000/svg"
   xmlns:svg="http://www.w3.org/2000/svg"><defs
     id="defs223"><clipPath
       clipPathUnits="userSpaceOnUse"
       id="clipPath233"><path
         d="M 0,769 H 1280 V 0 H 0 Z"
         id="path231" /></clipPath></defs><sodipodi:namedview
     id="namedview221"
     pagecolor="#ffffff"
     bordercolor="#666666"
     borderopacity="1.0"
     inkscape:pageshadow="2"
     inkscape:pageopacity="0.0"
     inkscape:pagecheckerboard="0"
     showgrid="false"
     inkscape:zoom="0.23403121"
     inkscape:cx="734.94472"
     inkscape:cy="561.89088"
     inkscape:window-width="1301"
     inkscape:window-height="771"
     inkscape:window-x="-27"
     inkscape:window-y="34"
     inkscape:window-maximized="0"
     inkscape:current-layer="g225"
     fit-margin-top="0"
     fit-margin-left="0"
     fit-margin-right="0"
     fit-margin-bottom="0" /><g
     id="g225"
     inkscape:groupmode="layer"
     inkscape:label="Logo"
     transform="matrix(1.3333333,0,0,-1.3333333,721.07006,1027.3335)"
     style="display:inline"><g
       id="g227"
       transform="matrix(2.4274032,0,0,2.4472068,-1870.8661,-494.79459)"><g
         id="g229"
         clip-path="url(#clipPath233)"><g
           id="g235"
           transform="translate(391.7892,280.6024)" /><g
           id="g239"
           transform="translate(472.485,251.9642)" /><g
           id="g243"
           transform="translate(522.4663,251.9642)" /><g
           id="g247"
           transform="translate(572.1025,251.9642)" /><g
           id="g251"
           transform="translate(612.708,288.9912)" /><g
           id="g255"
           transform="translate(639.6824,280.6024)" /><g
           id="g259"
           transform="translate(721.5856,280.6024)" /><g
           id="g263"
           transform="translate(786.1766,277.8831)" /><g
           id="g267"
           transform="translate(812.5179,280.6024)" /><g
           id="g271"
           transform="translate(874.8087,277.8831)" /><g
           id="g275"
           transform="translate(706.0928,351.8623)"><path
             d="M 0,0 V 22.294 L 18.965,33.527 18.982,10.656 Z M -22.337,33.291 -4.271,22.37 V 0.754 l -18.05,11.027 z m -23.096,-60.09 -18.884,-10.602 0.627,23.006 18.24,11.044 z m -41.319,23.528 18.943,-11.264 v -22.702 l -18.926,11.563 z m -41.123,3.806 v 22.006 l 18.011,11.376 0.017,-23.261 z m -23.291,33.696 19,-11.861 c 0,0 0.123,-15.553 0.08,-22.236 l -19.063,11.647 z m 0.017,49.859 -0.017,21.859 18.829,-9.669 V 72.597 Z m 38.29,25.006 c -8.937,-5.179 -17.452,-10.102 -17.343,-9.993 0.168,0.168 -12.739,6.627 -19.612,10.048 l 19.211,10.786 z m 63.971,37.413 -17.205,-9.879 -18.302,10.227 18.206,10.221 z m -19.181,-36.681 -18.666,11.404 -0.017,23.174 18.638,-11.208 c 0,0 0.116,-18.324 0.045,-23.37 m 22.619,34.236 0.017,-23.957 -18.333,-10.292 v 23.535 z m 16.124,-33.294 0.022,-28.945 -9.961,-5.318 -26.774,16.358 -27.703,-15.553 0.001,-0.624 -9.119,4.784 -0.022,29.5 10.139,5.744 26.597,-16.249 27.702,15.552 v 0.112 z m 27.552,9.167 18.327,-11.197 -18.689,-9.485 -18.239,10.239 z M 0,72.309 V 96.28 l 18.965,9.594 0.017,-22.909 z m -3.661,0.381 -18.66,11.4 -0.017,22.57 18.677,-10.981 z M -68.037,59.382 -68.066,37.517 -86.735,48.923 -86.75,69.345 Z m 22.604,-11.584 -19.176,-10.766 0.175,22.179 18.985,10.566 z m -41.32,25.427 20.564,11.545 19.773,-12.08 -19.677,-10.504 -20.66,10.837 z m -23.112,33.79 0.018,-24.05 -18.829,-10.571 v 23.963 z m -39.659,-70.01 18.921,10.623 18.499,-11.302 -18.117,-10.924 z m 46.641,1.873 -25.793,15.759 v 9.746 l 24.943,14.004 9.994,-5.321 0.021,-28.063 25.641,-15.665 -0.016,-12.223 -23.819,-13.372 -10.949,6.43 z m 36.79,-50.298 -18.845,11.067 18.749,10.526 18.045,-11.024 z m 36.788,21.662 -12.016,-7.076 -23.443,14.323 0.091,11.496 26.229,14.725 -0.022,29.954 10.367,5.77 24.438,-14.93 V 54.58 L -29.327,40.171 Z M -1.679,25.573 -20.876,36.904 -1.774,47.628 16.654,36.37 Z M 0,54.73 v 9.568 l 25.971,14.58 -0.025,32.309 -27.571,16.845 -25.885,-14.532 -10.937,6.139 -0.021,28.69 -27.571,16.845 -27.703,-15.553 0.022,-29.419 c -1.98,-1.151 -6.777,-3.936 -12.264,-7.12 l -24.47,14.95 -27.702,-15.552 0.024,-32.31 25.795,-15.759 v -9.745 l -25.819,-14.495 0.024,-32.31 27.571,-16.845 27.475,15.425 9.345,-5.557 0.023,-30.478 27.572,-16.845 27.702,15.552 -0.024,31.764 10.345,6.263 26.391,-16.124 27.703,15.553 -0.025,32.309 z"
             style="fill:#6566f7;fill-opacity:1;fill-rule:nonzero;stroke:none"
             id="path277" /></g></g></g></g></svg>
